<svg width="1920" height="883" viewBox="0 0 1920 883" fill="none" xmlns="http://www.w3.org/2000/svg">
<path d="M195.9 245.4H263.1V285H144.6V74.4H195.9V245.4ZM341.869 115.5V158.1H410.569V197.7H341.869V243.9H419.569V285H290.569V74.4H419.569V115.5H341.869ZM586.973 247.8H508.373L495.773 285H442.073L518.273 74.4H577.673L653.873 285H599.573L586.973 247.8ZM573.773 208.2L547.673 131.1L521.873 208.2H573.773ZM787.465 285L743.665 205.5H731.365V285H680.065V74.4H766.165C782.765 74.4 796.865 77.3 808.465 83.1C820.265 88.9 829.065 96.9 834.865 107.1C840.665 117.1 843.565 128.3 843.565 140.7C843.565 154.7 839.565 167.2 831.565 178.2C823.765 189.2 812.165 197 796.765 201.6L845.365 285H787.465ZM731.365 169.2H763.165C772.565 169.2 779.565 166.9 784.165 162.3C788.965 157.7 791.365 151.2 791.365 142.8C791.365 134.8 788.965 128.5 784.165 123.9C779.565 119.3 772.565 117 763.165 117H731.365V169.2ZM1067.17 285H1015.87L930.068 155.1V285H878.768V74.4H930.068L1015.87 204.9V74.4H1067.17V285ZM1162.55 237.6L1129.25 323.7H1096.55L1113.95 237.6H1162.55ZM195.9 335.4V546H144.6V335.4H195.9ZM424.477 546H373.177L287.377 416.1V546H236.077V335.4H287.377L373.177 465.9V335.4H424.477V546ZM653.063 546H601.763L515.963 416.1V546H464.663V335.4H515.963L601.763 465.9V335.4H653.063V546ZM792.848 548.1C773.048 548.1 754.848 543.5 738.248 534.3C721.848 525.1 708.748 512.3 698.948 495.9C689.348 479.3 684.548 460.7 684.548 440.1C684.548 419.5 689.348 401 698.948 384.6C708.748 368.2 721.848 355.4 738.248 346.2C754.848 337 773.048 332.4 792.848 332.4C812.648 332.4 830.748 337 847.148 346.2C863.748 355.4 876.748 368.2 886.148 384.6C895.748 401 900.548 419.5 900.548 440.1C900.548 460.7 895.748 479.3 886.148 495.9C876.548 512.3 863.548 525.1 847.148 534.3C830.748 543.5 812.648 548.1 792.848 548.1ZM792.848 501.3C809.648 501.3 823.048 495.7 833.048 484.5C843.248 473.3 848.348 458.5 848.348 440.1C848.348 421.5 843.248 406.7 833.048 395.7C823.048 384.5 809.648 378.9 792.848 378.9C775.848 378.9 762.248 384.4 752.048 395.4C742.048 406.4 737.048 421.3 737.048 440.1C737.048 458.7 742.048 473.6 752.048 484.8C762.248 495.8 775.848 501.3 792.848 501.3ZM1129.79 335.4L1055.09 546H990.888L916.188 335.4H970.788L1022.99 494.4L1075.49 335.4H1129.79ZM1285.33 508.8H1206.73L1194.13 546H1140.43L1216.63 335.4H1276.03L1352.23 546H1297.93L1285.33 508.8ZM1272.13 469.2L1246.03 392.1L1220.23 469.2H1272.13ZM1529.92 335.4V376.5H1474.12V546H1422.82V376.5H1367.02V335.4H1529.92ZM1609.97 376.5V419.1H1678.67V458.7H1609.97V504.9H1687.67V546H1558.67V335.4H1687.67V376.5H1609.97ZM1779.17 498.6L1745.87 584.7H1713.17L1730.57 498.6H1779.17ZM223.5 596.4C245.7 596.4 265.1 600.8 281.7 609.6C298.3 618.4 311.1 630.8 320.1 646.8C329.3 662.6 333.9 680.9 333.9 701.7C333.9 722.3 329.3 740.6 320.1 756.6C311.1 772.6 298.2 785 281.4 793.8C264.8 802.6 245.5 807 223.5 807H144.6V596.4H223.5ZM220.2 762.6C239.6 762.6 254.7 757.3 265.5 746.7C276.3 736.1 281.7 721.1 281.7 701.7C281.7 682.3 276.3 667.2 265.5 656.4C254.7 645.6 239.6 640.2 220.2 640.2H195.9V762.6H220.2ZM416.869 637.5V680.1H485.569V719.7H416.869V765.9H494.569V807H365.569V596.4H494.569V637.5H416.869ZM728.573 596.4L653.873 807H589.673L514.973 596.4H569.573L621.773 755.4L674.273 596.4H728.573ZM804.314 637.5V680.1H873.014V719.7H804.314V765.9H882.014V807H753.014V596.4H882.014V637.5H804.314ZM969.619 767.4H1036.82V807H918.319V596.4H969.619V767.4ZM1163.89 809.1C1144.09 809.1 1125.89 804.5 1109.29 795.3C1092.89 786.1 1079.79 773.3 1069.99 756.9C1060.39 740.3 1055.59 721.7 1055.59 701.1C1055.59 680.5 1060.39 662 1069.99 645.6C1079.79 629.2 1092.89 616.4 1109.29 607.2C1125.89 598 1144.09 593.4 1163.89 593.4C1183.69 593.4 1201.79 598 1218.19 607.2C1234.79 616.4 1247.79 629.2 1257.19 645.6C1266.79 662 1271.59 680.5 1271.59 701.1C1271.59 721.7 1266.79 740.3 1257.19 756.9C1247.59 773.3 1234.59 786.1 1218.19 795.3C1201.79 804.5 1183.69 809.1 1163.89 809.1ZM1163.89 762.3C1180.69 762.3 1194.09 756.7 1204.09 745.5C1214.29 734.3 1219.39 719.5 1219.39 701.1C1219.39 682.5 1214.29 667.7 1204.09 656.7C1194.09 645.5 1180.69 639.9 1163.89 639.9C1146.89 639.9 1133.29 645.4 1123.09 656.4C1113.09 667.4 1108.09 682.3 1108.09 701.1C1108.09 719.7 1113.09 734.6 1123.09 745.8C1133.29 756.8 1146.89 762.3 1163.89 762.3ZM1463.63 664.2C1463.63 676.4 1460.83 687.6 1455.23 697.8C1449.63 707.8 1441.03 715.9 1429.43 722.1C1417.83 728.3 1403.43 731.4 1386.23 731.4H1354.43V807H1303.13V596.4H1386.23C1403.03 596.4 1417.23 599.3 1428.83 605.1C1440.43 610.9 1449.13 618.9 1454.93 629.1C1460.73 639.3 1463.63 651 1463.63 664.2ZM1382.33 690.6C1392.13 690.6 1399.43 688.3 1404.23 683.7C1409.03 679.1 1411.43 672.6 1411.43 664.2C1411.43 655.8 1409.03 649.3 1404.23 644.7C1399.43 640.1 1392.13 637.8 1382.33 637.8H1354.43V690.6H1382.33Z" fill="#2B2B2B" fill-opacity="0.03"/>
</svg>
