<svg width="33" height="40" viewBox="0 0 33 40" fill="none" xmlns="http://www.w3.org/2000/svg">
<path d="M0.0021629 0L10.5175 6.06742L7.5944 11.1273L0 6.74532L0.0021629 0Z" fill="url(#paint0_linear_24_56)"/>
<path d="M24.341 20.7903L13.8257 14.7228L16.7488 9.66292L24.3432 14.0449L24.341 20.7903Z" fill="url(#paint1_linear_24_56)"/>
<path d="M10.5175 6.06742L16.7488 9.66292L13.8257 14.7228L7.5944 11.1273L10.5175 6.06742Z" fill="url(#paint2_linear_24_56)"/>
<path d="M32.381 10.7865L32.381 22.0546H26.5348V13.9165L32.381 10.7865Z" fill="url(#paint3_linear_24_56)"/>
<path d="M26.5348 40V28.7319L32.381 28.7319V36.87L26.5348 40Z" fill="url(#paint4_linear_24_56)"/>
<path d="M32.381 22.0546L32.381 28.7319L26.5348 28.7319V22.0546H32.381Z" fill="url(#paint5_linear_24_56)"/>
<path d="M0.0295009 9.55429L10.5448 15.6217L7.62174 20.6816L0.027338 16.2996L0.0295009 9.55429Z" fill="url(#paint6_linear_24_56)"/>
<path d="M24.3684 30.3446L13.853 24.2771L16.7761 19.2172L24.3705 23.5992L24.3684 30.3446Z" fill="url(#paint7_linear_24_56)"/>
<path d="M10.5448 15.6217L16.7761 19.2172L13.853 24.2771L7.62174 20.6816L10.5448 15.6217Z" fill="url(#paint8_linear_24_56)"/>
<path d="M0.0295009 19.1086L10.5448 25.176L7.62174 30.2359L0.027338 25.8539L0.0295009 19.1086Z" fill="url(#paint9_linear_24_56)"/>
<path d="M24.3684 39.8988L13.853 33.8314L16.7761 28.7715L24.3705 33.1535L24.3684 39.8988Z" fill="url(#paint10_linear_24_56)"/>
<path d="M10.5448 25.176L16.7761 28.7715L13.853 33.8314L7.62174 30.2359L10.5448 25.176Z" fill="url(#paint11_linear_24_56)"/>
<path d="M20.6886 9.51611L25.8602 6.70339L30.9232 9.62474L25.7515 12.4375L20.6886 9.51611Z" fill="url(#paint12_linear_24_56)"/>
<defs>
<linearGradient id="paint0_linear_24_56" x1="16.1905" y1="0" x2="16.1905" y2="40" gradientUnits="userSpaceOnUse">
<stop stop-color="#007FFF"/>
<stop offset="1" stop-color="#0059B2"/>
</linearGradient>
<linearGradient id="paint1_linear_24_56" x1="16.1905" y1="0" x2="16.1905" y2="40" gradientUnits="userSpaceOnUse">
<stop stop-color="#007FFF"/>
<stop offset="1" stop-color="#0059B2"/>
</linearGradient>
<linearGradient id="paint2_linear_24_56" x1="16.1905" y1="0" x2="16.1905" y2="40" gradientUnits="userSpaceOnUse">
<stop stop-color="#007FFF"/>
<stop offset="1" stop-color="#0059B2"/>
</linearGradient>
<linearGradient id="paint3_linear_24_56" x1="16.1905" y1="0" x2="16.1905" y2="40" gradientUnits="userSpaceOnUse">
<stop stop-color="#007FFF"/>
<stop offset="1" stop-color="#0059B2"/>
</linearGradient>
<linearGradient id="paint4_linear_24_56" x1="16.1905" y1="0" x2="16.1905" y2="40" gradientUnits="userSpaceOnUse">
<stop stop-color="#007FFF"/>
<stop offset="1" stop-color="#0059B2"/>
</linearGradient>
<linearGradient id="paint5_linear_24_56" x1="16.1905" y1="0" x2="16.1905" y2="40" gradientUnits="userSpaceOnUse">
<stop stop-color="#007FFF"/>
<stop offset="1" stop-color="#0059B2"/>
</linearGradient>
<linearGradient id="paint6_linear_24_56" x1="16.1905" y1="0" x2="16.1905" y2="40" gradientUnits="userSpaceOnUse">
<stop stop-color="#007FFF"/>
<stop offset="1" stop-color="#0059B2"/>
</linearGradient>
<linearGradient id="paint7_linear_24_56" x1="16.1905" y1="0" x2="16.1905" y2="40" gradientUnits="userSpaceOnUse">
<stop stop-color="#007FFF"/>
<stop offset="1" stop-color="#0059B2"/>
</linearGradient>
<linearGradient id="paint8_linear_24_56" x1="16.1905" y1="0" x2="16.1905" y2="40" gradientUnits="userSpaceOnUse">
<stop stop-color="#007FFF"/>
<stop offset="1" stop-color="#0059B2"/>
</linearGradient>
<linearGradient id="paint9_linear_24_56" x1="16.1905" y1="0" x2="16.1905" y2="40" gradientUnits="userSpaceOnUse">
<stop stop-color="#007FFF"/>
<stop offset="1" stop-color="#0059B2"/>
</linearGradient>
<linearGradient id="paint10_linear_24_56" x1="16.1905" y1="0" x2="16.1905" y2="40" gradientUnits="userSpaceOnUse">
<stop stop-color="#007FFF"/>
<stop offset="1" stop-color="#0059B2"/>
</linearGradient>
<linearGradient id="paint11_linear_24_56" x1="16.1905" y1="0" x2="16.1905" y2="40" gradientUnits="userSpaceOnUse">
<stop stop-color="#007FFF"/>
<stop offset="1" stop-color="#0059B2"/>
</linearGradient>
<linearGradient id="paint12_linear_24_56" x1="16.1905" y1="0" x2="16.1905" y2="40" gradientUnits="userSpaceOnUse">
<stop stop-color="#007FFF"/>
<stop offset="1" stop-color="#0059B2"/>
</linearGradient>
</defs>
</svg>
