<svg width="29" height="29" viewBox="0 0 29 29" fill="none" xmlns="http://www.w3.org/2000/svg">
<path d="M0.320801 0.320801H28.6828V28.683H0.320801V0.320801Z" fill="#F0DB4F"/>
<path d="M26.36 21.9167C26.1522 20.6228 25.3085 19.536 22.8093 18.5226C21.9411 18.1236 20.9732 17.8379 20.6848 17.18C20.5824 16.7971 20.5688 16.5814 20.6336 16.3496C20.8196 15.5974 21.7175 15.363 22.4291 15.5786C22.8874 15.7323 23.3213 16.0855 23.583 16.6489C24.8069 15.8564 24.8044 15.8616 25.659 15.317C25.3461 14.8319 25.1791 14.608 24.9743 14.4005C24.2382 13.5783 23.2352 13.1549 21.6311 13.1873L20.7956 13.2953C19.9949 13.4977 19.2318 13.9179 18.7844 14.4814C17.4418 16.0048 17.8247 18.671 19.4584 19.7682C21.0679 20.9763 23.4323 21.2511 23.7343 22.3807C24.0282 23.7637 22.718 24.2114 21.4157 24.0523C20.456 23.8527 19.9222 23.3649 19.3451 22.4779C18.283 23.0926 18.283 23.0926 17.191 23.7206C17.4499 24.2868 17.722 24.543 18.1561 25.0335C20.2106 27.1175 25.3517 27.0151 26.2739 23.8609C26.3112 23.7526 26.5596 23.0303 26.36 21.9167V21.9167ZM15.7376 13.3543H13.0847L13.0739 20.2128C13.0739 21.6714 13.1493 23.0085 12.9121 23.4184C12.524 24.2245 11.5183 24.1246 11.06 23.9683C10.5935 23.739 10.3563 23.4129 10.0814 22.9521C10.006 22.8198 9.94934 22.7174 9.93031 22.7095L7.77344 24.0303C8.13209 24.7664 8.66043 25.4053 9.33717 25.8204C10.3481 26.4271 11.7068 26.6131 13.1278 26.2869C14.0526 26.0175 14.8506 25.4595 15.2684 24.6101C15.8724 23.4966 15.7428 22.1487 15.7373 20.6579C15.7509 18.2258 15.7376 15.7941 15.7376 13.3543Z" fill="#323330"/>
</svg>
