<svg width="29" height="29" viewBox="0 0 29 29" fill="none" xmlns="http://www.w3.org/2000/svg">
<path d="M17.3306 14.7559C16.7891 14.5777 16.0096 14.616 14.9921 14.616H10.904V19.952H15.2758C15.9588 19.952 16.4386 19.8789 16.7149 19.8279C17.2019 19.7406 17.609 19.5718 17.9362 19.3681C18.263 19.1648 18.5319 18.8565 18.743 18.4677C18.9537 18.0788 19.0593 17.6239 19.0593 17.1151C19.0593 16.5193 18.9066 16.0618 18.6011 15.622C18.2958 15.1821 17.8724 14.9341 17.3306 14.7559V14.7559ZM16.7694 12.3162C17.307 12.1566 17.7123 11.8777 17.9849 11.5072C18.2577 11.1365 18.3939 10.6648 18.3939 10.105C18.3939 9.57464 18.2665 9.10414 18.012 8.70046C17.7575 8.29678 17.3944 8.14065 16.9218 7.99147C16.4493 7.84276 15.6389 7.888 14.4905 7.888H10.904V12.528H14.7522C15.6899 12.528 16.362 12.4398 16.7694 12.3162V12.3162ZM29 3.857C29 1.72678 27.2732 0 25.143 0H3.857C1.72678 0 0 1.72678 0 3.857V25.143C0 27.2732 1.72678 29 3.857 29H25.143C27.2732 29 29 27.2732 29 25.143V3.857ZM20.7763 19.1968C20.4603 19.8402 20.0694 20.3362 19.6042 20.6851C19.1388 21.034 18.5554 21.3301 17.854 21.5083C17.1529 21.6867 16.2931 21.808 15.2758 21.808H8.816V5.8H15.1774C16.3987 5.8 17.378 5.94129 18.1157 6.26446C18.8537 6.5881 19.4314 7.07577 19.8497 7.7481C20.2675 8.42044 20.4766 9.11853 20.4766 9.85258C20.4766 10.5358 20.291 11.1768 19.9204 11.78C19.5497 12.3837 18.9899 12.869 18.2415 13.2398C19.208 13.5233 19.9513 14.0063 20.471 14.6893C20.9907 15.3726 21.2505 16.1792 21.2505 17.1095C21.2505 17.8582 21.0925 18.5537 20.7763 19.1968V19.1968Z" fill="#5B4282"/>
</svg>
