<svg width="29" height="29" viewBox="0 0 29 29" fill="none" xmlns="http://www.w3.org/2000/svg">
<path d="M4.31314 25.8001L2.04639 0.376343H26.9538L24.6845 25.7962L14.4849 28.6237L4.31314 25.8001Z" fill="#E44D26"/>
<path d="M14.5 26.4625L22.7419 24.1774L24.681 2.45508H14.5V26.4625Z" fill="#F16529"/>
<path d="M14.4998 11.8844H10.3736L10.0886 8.6912H14.4998V5.57324H6.68091L6.75567 6.40971L7.52191 15.0025H14.4998V11.8844ZM14.4998 19.9824L14.486 19.9862L11.0135 19.0483L10.7917 16.5618H7.66124L8.09806 21.4575L14.4855 23.2306L14.4998 23.2268V19.9824Z" fill="#EBEBEB"/>
<path d="M14.489 11.8844V15.0025H18.3286L17.9667 19.0465L14.489 19.9851V23.2292L20.8815 21.4575L20.9284 20.9308L21.6611 12.7217L21.737 11.8844H20.8969H14.489ZM14.489 5.57324V8.69119H22.0209L22.0834 7.99066L22.2257 6.40971L22.3002 5.57324H14.489Z" fill="white"/>
</svg>
