<svg width="29" height="29" viewBox="0 0 29 29" fill="none" xmlns="http://www.w3.org/2000/svg">
<path d="M21.3438 18.2647L22.1815 16.1462H24.6003L23.4522 12.9327L24.8879 9.30225L28.9999 20.2201H25.9675L25.2648 18.2647H21.3438Z" fill="#181818"/>
<path d="M18.7547 19.6178L23.1566 8.69995L20.2384 8.70018L17.2271 15.7555L15.0856 8.70018H12.8426L10.5435 15.7555L8.92198 12.5404L7.45459 17.0611L8.94453 19.6178H11.8165L13.8943 13.2907L15.875 19.6178H18.7547Z" fill="#181818"/>
<path d="M2.77015 15.8767H4.5677C5.11225 15.8767 5.59704 15.816 6.0223 15.6944L6.4871 14.2623L7.78637 10.2594C7.68756 10.1027 7.57455 9.95411 7.44737 9.81437C6.78029 9.07591 5.80421 8.70691 4.51934 8.70691H0V19.6248H2.77015V15.8767ZM5.14945 11.2185C5.4101 11.4808 5.54031 11.8319 5.54031 12.2713C5.54031 12.7145 5.42568 13.0658 5.19665 13.3255C4.9453 13.6141 4.48284 13.7585 3.80902 13.7585H2.77015V10.8253H3.81669C4.44471 10.8253 4.88904 10.9562 5.14945 11.2185Z" fill="#181818"/>
</svg>
