<svg width="29" height="29" viewBox="0 0 29 29" fill="none" xmlns="http://www.w3.org/2000/svg">
<path d="M28.2612 13.2269L15.774 0.740138C15.0553 0.0210283 13.889 0.0210283 13.1692 0.740138L10.5764 3.33337L13.8656 6.62261C14.6303 6.36455 15.5066 6.53765 16.1158 7.14687C16.7282 7.75995 16.9 8.64377 16.6356 9.41091L19.8056 12.5812C20.5725 12.3168 21.4577 12.4876 22.0699 13.1012C22.9263 13.9569 22.9263 15.3441 22.0699 16.2003C21.2135 17.0567 19.8267 17.0567 18.9698 16.2003C18.326 15.556 18.1667 14.6101 18.4929 13.8166L15.5367 10.8605L15.5363 18.6408C15.7452 18.7439 15.9421 18.8817 16.1161 19.055C16.972 19.9107 16.972 21.2975 16.1161 22.1551C15.2599 23.0108 13.8722 23.0108 13.0169 22.1551C12.161 21.2977 12.161 19.9109 13.0169 19.055C13.2285 18.8436 13.4732 18.6839 13.7344 18.5769V10.7245C13.4732 10.6176 13.229 10.459 13.0169 10.2462C12.3685 9.59828 12.2124 8.64672 12.545 7.85012L9.30219 4.60733L0.739941 13.1691C0.0206054 13.8889 0.0206054 15.0553 0.739941 15.7746L13.2274 28.2614C13.9465 28.9805 15.1124 28.9805 15.8326 28.2614L28.2614 15.8326C28.9805 15.113 28.9805 13.946 28.2612 13.2269V13.2269Z" fill="#F34F29"/>
</svg>
