<svg width="29" height="29" viewBox="0 0 29 29" fill="none" xmlns="http://www.w3.org/2000/svg">
<path d="M14.4998 17.0829C15.9263 17.0829 17.0826 15.9265 17.0826 14.5001C17.0826 13.0736 15.9263 11.9172 14.4998 11.9172C13.0734 11.9172 11.917 13.0736 11.917 14.5001C11.917 15.9265 13.0734 17.0829 14.4998 17.0829Z" fill="#61DAFB"/>
<path d="M24.3101 10.2407C23.8117 10.0594 23.2906 9.87818 22.7468 9.71958C22.8828 9.17583 22.996 8.63208 23.0867 8.11099C23.5625 5.12036 23.0414 3.01333 21.5914 2.1977C21.1609 1.94849 20.6851 1.83521 20.1414 1.83521C18.5554 1.83521 16.539 3.01333 14.5 4.98442C12.4609 3.01333 10.4445 1.83521 8.85855 1.83521C8.3148 1.83521 7.83902 1.94849 7.40855 2.1977C5.95855 3.03599 5.43745 5.14302 5.91323 8.11099C6.00386 8.63208 6.11714 9.17583 6.25308 9.71958C5.70933 9.87818 5.18823 10.0368 4.6898 10.2407C1.85776 11.3282 0.317139 12.8235 0.317139 14.5001C0.317139 16.1766 1.88042 17.6719 4.6898 18.7594C5.18823 18.9407 5.70933 19.1219 6.25308 19.2805C6.11714 19.8243 6.00386 20.368 5.91323 20.8891C5.43745 23.8797 5.95855 25.9868 7.40855 26.8024C7.83902 27.0516 8.3148 27.1649 8.85855 27.1649C10.4671 27.1649 12.4835 25.9868 14.5 24.0157C16.539 25.9868 18.5554 27.1649 20.1414 27.1649C20.6851 27.1649 21.1609 27.0516 21.5914 26.8024C23.0414 25.9641 23.5625 23.8571 23.0867 20.8891C22.996 20.368 22.8828 19.8243 22.7468 19.2805C23.2906 19.1219 23.8117 18.9633 24.3101 18.7594C27.1421 17.6719 28.6828 16.1766 28.6828 14.5001C28.6828 12.8235 27.1421 11.3282 24.3101 10.2407ZM20.957 3.33052C21.8859 3.87427 22.2031 5.55083 21.8179 7.92974C21.75 8.40552 21.6367 8.90396 21.5007 9.42505C20.3226 9.15317 19.0765 8.97192 17.7625 8.85864C16.9921 7.77114 16.1992 6.79692 15.4062 5.91333C17.0828 4.25942 18.782 3.12661 20.164 3.12661C20.4585 3.12661 20.7304 3.19458 20.957 3.33052V3.33052ZM18.4195 16.7657C18.0117 17.4907 17.5359 18.2157 17.0375 18.9407C16.1992 19.0086 15.3609 19.0313 14.5 19.0313C13.6164 19.0313 12.7781 19.0086 11.9625 18.9407C11.464 18.2157 11.0109 17.4907 10.6031 16.7657C10.1726 16.018 9.7648 15.2477 9.4023 14.5001C9.7648 13.7524 10.1726 12.9821 10.6031 12.2344C11.0109 11.5094 11.4867 10.7844 11.9851 10.0594C12.8234 9.99146 13.6617 9.9688 14.5226 9.9688C15.4062 9.9688 16.2445 9.99146 17.0601 10.0594C17.5585 10.7844 18.0117 11.5094 18.4195 12.2344C18.85 12.9821 19.2578 13.7524 19.6203 14.5001C19.2351 15.2477 18.85 15.9954 18.4195 16.7657ZM20.3 16.018C20.6398 16.811 20.9117 17.5813 21.1609 18.3516C20.3906 18.5329 19.575 18.6688 18.714 18.7821C18.9859 18.3516 19.2804 17.8985 19.5296 17.4227C19.8015 16.9469 20.0507 16.4711 20.3 16.018ZM14.5 22.1579C13.9562 21.5688 13.4351 20.9344 12.9367 20.2774C13.4578 20.3001 13.9789 20.3227 14.5 20.3227C15.021 20.3227 15.5421 20.3001 16.0632 20.2774C15.5648 20.9344 15.0437 21.5688 14.5 22.1579ZM10.2859 18.7594C9.42495 18.6461 8.60933 18.5102 7.83901 18.329C8.08823 17.5813 8.36011 16.7883 8.69995 15.9954C8.94917 16.4485 9.19839 16.9243 9.47026 17.3774C9.74214 17.8758 10.014 18.3063 10.2859 18.7594V18.7594ZM8.69995 12.9821C8.36011 12.1891 8.08823 11.4188 7.83901 10.6485C8.60933 10.4672 9.42495 10.3313 10.2859 10.218C10.014 10.6485 9.71948 11.1016 9.47026 11.5774C9.19839 12.0532 8.94917 12.529 8.69995 12.9821V12.9821ZM14.5 6.84224C15.0437 7.4313 15.5648 8.06567 16.0632 8.72271C15.5421 8.70005 15.021 8.67739 14.5 8.67739C13.9789 8.67739 13.4578 8.70005 12.9367 8.72271C13.4351 8.06567 13.9562 7.4313 14.5 6.84224V6.84224ZM19.5296 11.6L18.714 10.2407C19.575 10.354 20.3906 10.4899 21.1609 10.6711C20.9117 11.4188 20.6398 12.2118 20.3 13.0047C20.0507 12.529 19.8015 12.0532 19.5296 11.6V11.6ZM7.18198 7.92974C6.79683 5.55083 7.11401 3.87427 8.04292 3.33052C8.26948 3.19458 8.54136 3.12661 8.83589 3.12661C10.1953 3.12661 11.8945 4.23677 13.5937 5.91333C12.8007 6.77427 12.0078 7.77114 11.2375 8.85864C9.92339 8.97192 8.6773 9.17583 7.49917 9.42505C7.36323 8.90396 7.27261 8.40552 7.18198 7.92974ZM1.58589 14.5001C1.58589 13.4352 2.8773 12.3024 5.14292 11.4641C5.59605 11.2829 6.09448 11.1243 6.59292 10.9883C6.95542 12.1211 7.40855 13.3219 7.9523 14.5227C7.40855 15.7235 6.93277 16.9016 6.59292 18.0344C3.46636 17.1282 1.58589 15.7688 1.58589 14.5001V14.5001ZM8.04292 25.6696C7.11401 25.1258 6.79683 23.4493 7.18198 21.0704C7.24995 20.5946 7.36323 20.0961 7.49917 19.5751C8.6773 19.8469 9.92339 20.0282 11.2375 20.1415C12.0078 21.229 12.8007 22.2032 13.5937 23.0868C11.9171 24.7407 10.2179 25.8735 8.83589 25.8735C8.54136 25.8735 8.26948 25.8055 8.04292 25.6696ZM21.8179 21.0704C22.2031 23.4493 21.8859 25.1258 20.957 25.6696C20.7304 25.8055 20.4585 25.8735 20.164 25.8735C18.8046 25.8735 17.1054 24.7633 15.4062 23.0868C16.1992 22.2258 16.9921 21.229 17.7625 20.1415C19.0765 20.0282 20.3226 19.8243 21.5007 19.5751C21.6367 20.0961 21.7273 20.5946 21.8179 21.0704V21.0704ZM23.857 17.536C23.4039 17.7172 22.9054 17.8758 22.407 18.0118C22.0445 16.879 21.5914 15.6782 21.0476 14.4774C21.5914 13.2766 22.0671 12.0985 22.407 10.9657C25.5335 11.8719 27.414 13.2313 27.414 14.5001C27.414 15.5649 26.1 16.6977 23.857 17.536V17.536Z" fill="#61DAFB"/>
</svg>
