<svg width="29" height="29" viewBox="0 0 29 29" fill="none" xmlns="http://www.w3.org/2000/svg">
<path fill-rule="evenodd" clip-rule="evenodd" d="M14.5 1.15613C6.94484 1.15613 0.818359 7.28124 0.818359 14.8378C0.818359 20.8829 4.73857 26.0112 10.1747 27.8205C10.8582 27.9474 11.1093 27.5237 11.1093 27.1623C11.1093 26.8361 11.0966 25.7583 11.0907 24.6151C7.28445 25.4427 6.48129 23.0008 6.48129 23.0008C5.85892 21.4194 4.96219 20.9989 4.96219 20.9989C3.72063 20.1498 5.05576 20.1674 5.05576 20.1674C6.42941 20.2637 7.15305 21.5773 7.15305 21.5773C8.37331 23.6685 10.3537 23.064 11.1344 22.7147C11.2572 21.8304 11.6118 21.2266 12.0031 20.885C8.96419 20.5395 5.76943 19.3661 5.76943 14.1237C5.76943 12.6299 6.30412 11.4094 7.17933 10.4511C7.03705 10.1067 6.56874 8.71516 7.31164 6.83061C7.31164 6.83061 8.46031 6.4629 11.0748 8.23303C12.1664 7.92967 13.3371 7.77719 14.5 7.77198C15.6623 7.77719 16.8336 7.92921 17.9272 8.23258C20.5386 6.46245 21.6859 6.83016 21.6859 6.83016C22.4306 8.71448 21.9623 10.1063 21.8202 10.4506C22.6975 11.409 23.2283 12.6295 23.2283 14.1232C23.2283 19.3781 20.0277 20.5349 16.9811 20.8739C17.4721 21.2984 17.9093 22.1313 17.9093 23.4075C17.9093 25.2381 17.8935 26.7115 17.8935 27.1621C17.8935 27.5262 18.14 27.9528 18.8332 27.8185C24.2662 26.0073 28.1819 20.8807 28.1819 14.8378C28.1817 7.2817 22.0559 1.15635 14.5 1.15635V1.15613Z" fill="#181818"/>
<path d="M6.00069 20.7998C5.97056 20.8678 5.86362 20.8882 5.7662 20.8418C5.66651 20.7973 5.611 20.7047 5.64318 20.6365C5.67263 20.5663 5.77979 20.547 5.8788 20.5939C5.97849 20.6385 6.03513 20.7321 6.00046 20.8001L6.00069 20.7998ZM6.55486 21.4181C6.48984 21.4786 6.36228 21.4505 6.27574 21.3547C6.18602 21.2595 6.16925 21.132 6.23564 21.0706C6.30315 21.0103 6.42686 21.0389 6.51657 21.134C6.60584 21.2305 6.62351 21.357 6.55509 21.4184L6.55486 21.4181ZM7.09453 22.2059C7.01071 22.2643 6.87341 22.2097 6.78868 22.0881C6.70485 21.9662 6.70485 21.8201 6.79094 21.7618C6.87545 21.7034 7.01071 21.7562 7.0968 21.8767C7.18018 22.0002 7.18018 22.1463 7.09453 22.2057V22.2059ZM7.83336 22.9674C7.75859 23.0501 7.59864 23.0279 7.48173 22.9153C7.36233 22.8049 7.32903 22.6479 7.40402 22.5654C7.48014 22.4825 7.64078 22.5056 7.75836 22.6176C7.87776 22.7277 7.91379 22.8849 7.83381 22.9671L7.83336 22.9674ZM8.85289 23.4094C8.81958 23.5166 8.66597 23.5653 8.51078 23.5195C8.35603 23.4726 8.25476 23.3473 8.28648 23.239C8.3182 23.1309 8.47294 23.0804 8.62904 23.1291C8.78378 23.1758 8.88506 23.3004 8.85289 23.4094ZM9.97278 23.4912C9.97664 23.604 9.84523 23.6973 9.68278 23.6996C9.51898 23.7035 9.38644 23.6119 9.38486 23.5009C9.38486 23.387 9.51354 23.2947 9.67712 23.2916C9.83957 23.2886 9.97301 23.3793 9.97301 23.4909L9.97278 23.4912ZM11.0145 23.314C11.034 23.4239 10.9209 23.5369 10.7594 23.5671C10.6008 23.5965 10.4536 23.5281 10.4332 23.4191C10.4137 23.3063 10.5288 23.1932 10.6874 23.164C10.8491 23.1362 10.9941 23.2025 11.0145 23.3142V23.314Z" fill="#181818"/>
</svg>
