<svg width="29" height="29" viewBox="0 0 29 29" fill="none" xmlns="http://www.w3.org/2000/svg">
<path d="M4.26223 25.856L1.98438 0.306274H27.015L24.7349 25.8521L14.4845 28.6939L4.26223 25.856V25.856Z" fill="#1572B6"/>
<path d="M14.4998 26.5219L22.7827 24.2255L24.7313 2.39526H14.4998V26.5219Z" fill="#33A9DC"/>
<path d="M14.4998 11.6518H18.6463L18.9327 8.44304H14.4998V5.30945H22.3574L22.2822 6.15022L21.5119 14.7854H14.4998V11.6518V11.6518Z" fill="white"/>
<path d="M14.5184 19.7901L14.5045 19.7941L11.0148 18.8519L10.7916 16.3527H7.64648L8.08534 21.2729L14.5041 23.0544L14.5184 23.0503V19.7901V19.7901Z" fill="#EBEBEB"/>
<path d="M18.38 14.653L18.0025 18.8493L14.5076 19.7928V23.053L20.9315 21.2727L20.9786 20.7432L21.5238 14.653H18.38Z" fill="white"/>
<path d="M14.5106 5.30945V8.44303H6.94162L6.87886 7.73888L6.73612 6.15022L6.66113 5.30945H14.5106V5.30945ZM14.5 11.6523V14.7859H11.0542L10.9914 14.0817L10.8485 12.4931L10.7737 11.6523H14.5V11.6523Z" fill="#EBEBEB"/>
</svg>
