<svg width="29" height="29" viewBox="0 0 29 29" fill="none" xmlns="http://www.w3.org/2000/svg">
<path d="M14.5 0C6.50234 0 0 6.50234 0 14.5C0 22.4977 6.50234 29 14.5 29C22.4977 29 29 22.4977 29 14.5C29 6.50234 22.4977 0 14.5 0ZM21.9086 25.9188L10.9656 9.47031H9.425V20.8211H10.9656V12.5289L20.9797 26.4625C19.0539 27.5047 16.8562 28.0938 14.5 28.0938C6.97812 28.1164 0.883594 22.0219 0.883594 14.5C0.883594 6.97812 6.97812 0.883594 14.5 0.883594C22.0219 0.883594 28.1164 6.97812 28.1164 14.5C28.1164 19.2805 25.6469 23.4945 21.9086 25.9188V25.9188Z" fill="black"/>
<path d="M17.8079 16.6071L19.5071 19.1672V9.47034H17.8079V16.6071Z" fill="black"/>
</svg>
