<svg width="29" height="29" viewBox="0 0 29 29" fill="none" xmlns="http://www.w3.org/2000/svg">
<path fill-rule="evenodd" clip-rule="evenodd" d="M14.5 6C10.6333 6 8.21667 7.88889 7.25 11.6667C8.7 9.77778 10.3917 9.06944 12.325 9.54167C13.4281 9.81083 14.2164 10.5931 15.0891 11.4584C16.5107 12.8682 18.1561 14.5 21.75 14.5C25.6167 14.5 28.0333 12.6111 29 8.83333C27.55 10.7222 25.8583 11.4306 23.925 10.9583C22.8219 10.6892 22.0336 9.90685 21.1609 9.04164C19.7393 7.63179 18.0939 6 14.5 6ZM7.25 14.5C3.38333 14.5 0.966667 16.3889 0 20.1667C1.45 18.2778 3.14167 17.5694 5.075 18.0417C6.17807 18.3114 6.96644 19.0931 7.83913 19.9584C9.26067 21.3682 10.9061 23 14.5 23C18.3667 23 20.7833 21.1111 21.75 17.3333C20.3 19.2222 18.6083 19.9306 16.675 19.4583C15.5719 19.1892 14.7836 18.4069 13.9109 17.5416C12.4893 16.1318 10.8439 14.5 7.25 14.5Z" fill="#06B6D4"/>
</svg>
