<svg width="29" height="29" viewBox="0 0 29 29" fill="none" xmlns="http://www.w3.org/2000/svg">
<path d="M26.5735 22.2258L15.0075 28.7734V23.6735L22.2032 19.7109L26.5735 22.2258ZM27.3665 21.5098V7.82773L23.1343 10.2746V19.0675L27.3642 21.5076L27.3665 21.5098ZM2.42651 22.2258L13.9812 28.7689V23.6735L6.78331 19.7109L2.42651 22.2258ZM1.63354 21.5098V7.82773L5.86573 10.2746V19.0675L1.63354 21.5098ZM2.12972 6.94188L13.9925 0.226562V5.15656L6.39136 9.33664L6.33019 9.37063L2.12972 6.94188ZM26.8658 6.94188L15.0075 0.226562V5.15656L22.6087 9.33438L22.6699 9.36836L26.8703 6.94188H26.8658Z" fill="#8ED6FB"/>
<path d="M13.9922 22.5135L6.88037 18.6008V10.8569L13.9922 14.9531V22.5135ZM15.0072 22.5135L22.119 18.6053V10.8569L15.0072 14.9531V22.5135ZM7.36295 9.96876L14.4997 6.04016L21.6364 9.96876L14.4997 14.0831L7.36295 9.96876Z" fill="#1C78C0"/>
</svg>
