<svg width="48" height="48" viewBox="0 0 48 48" fill="none" xmlns="http://www.w3.org/2000/svg">
<circle cx="24" cy="24" r="23" fill="white" stroke="#0059B2" stroke-width="2"/>
<path d="M16.5 26.4999H14C13.3096 26.4999 12.75 27.0595 12.75 27.7499V30.2499C12.75 30.9402 13.3096 31.4999 14 31.4999H16.5C17.1904 31.4999 17.75 30.9402 17.75 30.2499V27.7499C17.75 27.0595 17.1904 26.4999 16.5 26.4999Z" stroke="#181818" stroke-width="2" stroke-linecap="round" stroke-linejoin="round"/>
<path d="M33.9998 26.4999H31.4998C30.8094 26.4999 30.2498 27.0595 30.2498 27.7499V30.2499C30.2498 30.9402 30.8094 31.4999 31.4998 31.4999H33.9998C34.6901 31.4999 35.2498 30.9402 35.2498 30.2499V27.7499C35.2498 27.0595 34.6901 26.4999 33.9998 26.4999Z" stroke="#181818" stroke-width="2" stroke-linecap="round" stroke-linejoin="round"/>
<path d="M25.2502 16.5H22.7502C22.0599 16.5 21.5002 17.0596 21.5002 17.75V20.25C21.5002 20.9404 22.0599 21.5 22.7502 21.5H25.2502C25.9406 21.5 26.5002 20.9404 26.5002 20.25V17.75C26.5002 17.0596 25.9406 16.5 25.2502 16.5Z" stroke="#181818" stroke-width="2" stroke-linecap="round" stroke-linejoin="round"/>
<path d="M21.4998 19.6251C19.8369 19.902 18.3159 20.7309 17.1819 21.9782C16.048 23.2256 15.3673 24.8185 15.2498 26.5001" stroke="#181818" stroke-width="2" stroke-linecap="round" stroke-linejoin="round"/>
<path d="M26.4998 19.6251C28.1626 19.902 29.6836 20.7309 30.8176 21.9782C31.9515 23.2256 32.6322 24.8185 32.7498 26.5001" stroke="#181818" stroke-width="2" stroke-linecap="round" stroke-linejoin="round"/>
<path d="M21.5002 18.9999H14.0002" stroke="#181818" stroke-width="2" stroke-linecap="round" stroke-linejoin="round"/>
<path d="M33.9998 18.9999H26.4998" stroke="#181818" stroke-width="2" stroke-linecap="round" stroke-linejoin="round"/>
<path d="M12.7498 20.2501C13.4401 20.2501 13.9998 19.6905 13.9998 19.0001C13.9998 18.3098 13.4401 17.7501 12.7498 17.7501C12.0594 17.7501 11.4998 18.3098 11.4998 19.0001C11.4998 19.6905 12.0594 20.2501 12.7498 20.2501Z" stroke="#181818" stroke-width="2" stroke-linecap="round" stroke-linejoin="round"/>
<path d="M35.2498 20.2501C35.9401 20.2501 36.4998 19.6905 36.4998 19.0001C36.4998 18.3098 35.9401 17.7501 35.2498 17.7501C34.5594 17.7501 33.9998 18.3098 33.9998 19.0001C33.9998 19.6905 34.5594 20.2501 35.2498 20.2501Z" stroke="#181818" stroke-width="2" stroke-linecap="round" stroke-linejoin="round"/>
</svg>
