<svg width="48" height="48" viewBox="0 0 48 48" fill="none" xmlns="http://www.w3.org/2000/svg">
<circle cx="24" cy="24" r="23" fill="white" stroke="#0059B2" stroke-width="2"/>
<path d="M15.25 19C16.6307 19 17.75 17.8807 17.75 16.5C17.75 15.1193 16.6307 14 15.25 14C13.8693 14 12.75 15.1193 12.75 16.5C12.75 17.8807 13.8693 19 15.25 19Z" stroke="#181818" stroke-width="2" stroke-linecap="round" stroke-linejoin="round"/>
<path d="M24 19C25.3807 19 26.5 17.8807 26.5 16.5C26.5 15.1193 25.3807 14 24 14C22.6193 14 21.5 15.1193 21.5 16.5C21.5 17.8807 22.6193 19 24 19Z" stroke="#181818" stroke-width="2" stroke-linecap="round" stroke-linejoin="round"/>
<path d="M32.75 19C34.1307 19 35.25 17.8807 35.25 16.5C35.25 15.1193 34.1307 14 32.75 14C31.3693 14 30.25 15.1193 30.25 16.5C30.25 17.8807 31.3693 19 32.75 19Z" stroke="#181818" stroke-width="2" stroke-linecap="round" stroke-linejoin="round"/>
<path d="M15.25 34C16.6307 34 17.75 32.8807 17.75 31.5C17.75 30.1193 16.6307 29 15.25 29C13.8693 29 12.75 30.1193 12.75 31.5C12.75 32.8807 13.8693 34 15.25 34Z" stroke="#181818" stroke-width="2" stroke-linecap="round" stroke-linejoin="round"/>
<path d="M24 34C25.3807 34 26.5 32.8807 26.5 31.5C26.5 30.1193 25.3807 29 24 29C22.6193 29 21.5 30.1193 21.5 31.5C21.5 32.8807 22.6193 34 24 34Z" stroke="#181818" stroke-width="2" stroke-linecap="round" stroke-linejoin="round"/>
<path d="M15.25 19V29" stroke="#181818" stroke-width="2" stroke-linecap="round" stroke-linejoin="round"/>
<path d="M24 19V29" stroke="#181818" stroke-width="2" stroke-linecap="round" stroke-linejoin="round"/>
<path d="M32.75 19V21.5C32.75 22.163 32.4866 22.7989 32.0178 23.2678C31.5489 23.7366 30.913 24 30.25 24H15.25" stroke="#181818" stroke-width="2" stroke-linecap="round" stroke-linejoin="round"/>
</svg>
