<svg width="48" height="48" viewBox="0 0 48 48" fill="none" xmlns="http://www.w3.org/2000/svg">
<circle cx="24" cy="24" r="23" fill="white" stroke="#0059B2" stroke-width="2"/>
<path fill-rule="evenodd" clip-rule="evenodd" d="M13.5 34.5C13.5 34.1022 13.658 33.7206 13.9393 33.4393C14.2206 33.158 14.6022 33 15 33H33C33.3978 33 33.7794 33.158 34.0607 33.4393C34.342 33.7206 34.5 34.1022 34.5 34.5C34.5 34.8978 34.342 35.2794 34.0607 35.5607C33.7794 35.842 33.3978 36 33 36H15C14.6022 36 14.2206 35.842 13.9393 35.5607C13.658 35.2794 13.5 34.8978 13.5 34.5ZM18.4395 22.9395C18.7208 22.6583 19.1023 22.5003 19.5 22.5003C19.8977 22.5003 20.2792 22.6583 20.5605 22.9395L22.5 24.879V13.5C22.5 13.1022 22.658 12.7206 22.9393 12.4393C23.2206 12.158 23.6022 12 24 12C24.3978 12 24.7794 12.158 25.0607 12.4393C25.342 12.7206 25.5 13.1022 25.5 13.5V24.879L27.4395 22.9395C27.5779 22.7962 27.7434 22.682 27.9264 22.6033C28.1094 22.5247 28.3062 22.4834 28.5054 22.4816C28.7046 22.4799 28.9021 22.5178 29.0864 22.5933C29.2708 22.6687 29.4383 22.7801 29.5791 22.9209C29.7199 23.0617 29.8313 23.2292 29.9067 23.4136C29.9822 23.5979 30.0201 23.7954 30.0184 23.9946C30.0166 24.1938 29.9753 24.3906 29.8967 24.5736C29.818 24.7566 29.7038 24.9221 29.5605 25.0605L25.0605 29.5605C24.7792 29.8417 24.3977 29.9997 24 29.9997C23.6023 29.9997 23.2208 29.8417 22.9395 29.5605L18.4395 25.0605C18.1583 24.7792 18.0003 24.3977 18.0003 24C18.0003 23.6023 18.1583 23.2208 18.4395 22.9395V22.9395Z" fill="#181818"/>
</svg>
