<svg width="48" height="48" viewBox="0 0 48 48" fill="none" xmlns="http://www.w3.org/2000/svg">
<circle cx="24" cy="24" r="23" fill="white" stroke="#0059B2" stroke-width="2"/>
<path d="M24 31.5H24.0125H24ZM19 35.25H29C29.663 35.25 30.2989 34.9866 30.7678 34.5178C31.2366 34.0489 31.5 33.413 31.5 32.75V15.25C31.5 14.587 31.2366 13.9511 30.7678 13.4822C30.2989 13.0134 29.663 12.75 29 12.75H19C18.337 12.75 17.7011 13.0134 17.2322 13.4822C16.7634 13.9511 16.5 14.587 16.5 15.25V32.75C16.5 33.413 16.7634 34.0489 17.2322 34.5178C17.7011 34.9866 18.337 35.25 19 35.25Z" stroke="#181818" stroke-width="2" stroke-linecap="round" stroke-linejoin="round"/>
</svg>
